<svg width="47" height="47" viewBox="0 0 47 47" fill="none" xmlns="http://www.w3.org/2000/svg">
<g clip-path="url(#clip0_2205_224)">
<path fill-rule="evenodd" clip-rule="evenodd" d="M9.90173 30.5975C9.90173 30.5975 9.57695 30.2893 9.49575 30.4841C9.41455 30.6789 9.57695 30.7275 9.57695 30.7275C10.9892 31.8961 10.8595 34.104 10.8595 34.104C10.6971 37.3024 9.12244 38.2116 8.3595 38.2116C7.90548 38.2116 7.64799 37.8959 7.51291 37.6396C8.09177 37.1744 8.51872 36.5853 8.71671 36.2795C9.07392 35.7275 9.12269 35.2566 9.12269 35.2566C9.35018 33.5198 8.39217 33.455 8.39217 33.455C6.84993 33.455 6.33057 34.9319 6.2979 36.0847C6.28522 36.538 6.35081 37.109 6.5332 37.6372C6.08406 37.8395 5.53056 37.9149 5.27527 37.3348C4.9183 36.5229 5.12897 35.2242 5.56762 34.0392C6.00579 32.8539 6.86627 32.01 7.07743 31.7989C7.28834 31.5879 7.30468 31.4902 7.30468 31.4902C7.36954 31.2468 7.12595 31.2793 7.12595 31.2793C6.67145 31.3926 5.9897 32.0098 5.9897 32.0098C4.48013 33.4057 4.20387 35.1591 4.15535 36.1005C4.10683 37.042 4.4638 38.3084 5.85973 38.3084C6.16964 38.3084 6.46468 38.2355 6.74094 38.116C7.0606 38.7132 7.57509 39.1694 8.35998 39.1852C9.98317 39.2177 11.6717 37.4965 11.8178 34.7368C11.9636 31.9776 9.90173 30.5975 9.90173 30.5975V30.5975ZM7.58045 34.6397C7.67774 34.1855 7.82404 33.9092 7.9701 33.8931C8.11615 33.877 8.18125 34.0879 8.18125 34.0879C8.45995 35.0004 7.83891 36.298 7.35198 36.9705C7.27127 35.8662 7.49194 35.0523 7.58045 34.6397V34.6397Z" fill="white"/>
<path fill-rule="evenodd" clip-rule="evenodd" d="M13.6438 34.4451C13.6438 34.4451 13.6195 34.3317 13.5141 34.3232C13.4085 34.3151 13.2298 34.2747 13.1893 34.3717C13.1489 34.4692 13.1813 34.4936 13.1813 34.4936C13.1813 34.4936 12.3915 35.4436 11.8263 36.6471C11.6732 36.6437 11.5174 36.6406 11.363 36.6367V36.7096C11.363 36.7096 11.4372 36.9115 11.6281 37.1058C11.5442 37.3191 11.4703 37.5374 11.4116 37.7568C11.4116 37.7568 11.2736 38.3089 11.5008 38.5927C11.5008 38.5927 11.6305 38.739 11.9716 38.747C11.9716 38.747 12.1016 38.788 12.1421 38.5603C12.1594 38.4627 12.3081 37.9946 12.5017 37.4615C13.2264 37.503 13.4895 37.4806 13.4895 37.4806C13.4895 37.4806 13.4166 38.1301 13.6358 38.3086C13.855 38.4871 14.0335 38.5924 14.0579 38.6005C14.0822 38.609 14.1956 38.69 14.212 38.5115C14.2283 38.333 14.358 35.6869 13.6438 34.4451V34.4451ZM12.8097 36.6662C12.9909 36.2309 13.1745 35.8537 13.3113 35.7113C13.3113 35.7113 13.4168 36.0032 13.4573 36.6771C13.4571 36.6771 13.1957 36.6732 12.8097 36.6662V36.6662Z" fill="white"/>
<path fill-rule="evenodd" clip-rule="evenodd" d="M14.4555 36.4258C14.4555 36.4258 13.993 38.2925 15.0237 38.4713C16.0546 38.6498 16.5579 37.4725 16.5661 37.2777C16.5742 37.0829 16.5254 36.88 16.2738 37.0019C16.0222 37.1234 15.5352 37.3752 15.2348 37.4238C15.2348 37.4238 15.1214 37.4562 15.1292 37.3099C15.1373 37.1641 15.2265 36.1817 15.6081 35.1349C15.6081 35.1349 15.7378 34.7616 15.5513 34.5339C15.5513 34.5339 15.4214 34.3149 15.2346 34.55C15.0478 34.7858 14.7316 35.3575 14.5124 36.1939L14.4555 36.4258V36.4258Z" fill="white"/>
<path fill-rule="evenodd" clip-rule="evenodd" d="M18.457 34.6075C18.457 34.6075 17.931 34.4671 17.3571 35.3115C16.2603 35.0801 16.2805 34.7824 16.2574 34.7048C16.233 34.6239 16.2898 34.6158 16.233 34.5505C16.1762 34.4856 16.0706 34.5995 16.0706 34.5995C15.8919 34.7943 15.965 35.1757 15.965 35.1757C16.0889 35.6429 16.6536 35.8991 16.9881 36.0125C16.5931 37.0022 16.5707 38.1509 16.6063 38.6337C16.647 39.1857 17.1988 39.6561 17.4668 39.6239C17.7345 39.5915 17.6616 39.0638 17.6616 39.0638C17.5648 37.7222 17.6833 36.8632 17.834 36.2368C19.0697 36.4416 19.1509 35.6343 19.1509 35.6343C19.2931 34.6522 18.457 34.6075 18.457 34.6075V34.6075ZM18.7167 35.1593C18.6808 35.3393 18.3707 35.3842 18.1012 35.3888C18.2368 35.1025 18.366 35.0569 18.5221 35.0211C18.733 34.9728 18.7167 35.1593 18.7167 35.1593Z" fill="white"/>
<path fill-rule="evenodd" clip-rule="evenodd" d="M24.8138 32.2128C24.8138 32.2128 21.5548 30.4097 18.8046 31.2755C18.8046 31.2755 18.6354 31.2706 18.4735 31.4918C18.3116 31.7132 18.1662 31.8641 18.246 32.036C18.3257 32.2074 18.7468 32.2903 19.1169 32.1884C19.1169 32.1884 19.2896 32.0804 19.0801 32.0036C18.8704 31.927 18.758 31.9092 18.758 31.9092C18.758 31.9092 18.6461 31.8778 18.7605 31.8249C18.8751 31.7715 20.1281 31.4125 22.3124 32.0411C24.4966 32.6693 27.4218 34.5333 27.2836 36.3791C27.1451 38.225 24.2506 38.2254 24.2506 38.2254C24.2506 38.2254 23.6549 38.2354 22.861 38.0631C22.8607 37.451 22.861 36.4157 22.8905 35.7842C23.9848 35.8018 25.0177 35.9381 25.2374 36.3338C25.2374 36.3338 25.3268 36.4208 25.0325 36.582C24.8092 36.7039 24.6183 36.7534 24.8131 36.8578C24.8131 36.8578 25.0969 37.0358 25.2683 36.9841C25.4388 36.9326 25.9094 36.7768 25.9659 36.2845C26.0225 35.7922 25.4302 35.2943 24.5805 35.1288C23.9143 34.9988 23.5578 34.9303 22.9509 34.9403C22.9636 34.3897 22.9061 33.7046 22.7912 33.5378C22.6423 33.3215 22.4811 33.0345 22.345 33.341C22.2226 33.6178 22.1141 34.2049 22.0639 34.9993C21.1281 35.1212 20.0876 35.4875 19.7726 35.8647C19.4215 36.2848 19.7533 36.6386 19.7772 36.6766C19.8021 36.7161 20.4512 37.7153 21.9061 38.4215C21.922 38.6858 21.9632 38.9757 22.0636 39.1364C22.2794 39.4817 22.6957 39.2534 22.7537 39.1988C22.7959 39.1588 22.8327 39.0508 22.8502 38.787C23.4998 38.9718 24.679 39.1871 25.9625 38.8404C27.898 38.3179 28.2004 37.1336 28.2774 36.4296C28.354 35.7257 27.8763 33.8645 24.8138 32.2128V32.2128ZM19.9665 36.4772C19.9665 36.4772 19.7614 36.2458 20.0757 36.1134C20.3622 35.9934 20.9679 35.8356 22.0344 35.7937C22.0239 36.12 21.9937 36.8076 21.9091 37.7829C21.2305 37.5256 20.5236 37.1199 19.9665 36.4772ZM30.6985 32.3206C30.6933 32.3201 30.688 32.3201 30.6828 32.3201C30.5761 31.9378 29.8685 31.9714 29.8685 31.9714C28.433 32.0499 27.9317 33.0306 27.8603 33.29C27.7973 33.5188 27.8144 33.8601 28.0875 34.1101C27.998 34.3244 28.059 34.4248 28.0799 34.4819C28.106 34.5533 28.2267 34.7757 28.3682 34.7657C28.4691 34.7586 28.5466 34.6928 28.669 34.4758C28.9499 34.6048 29.2906 34.6667 29.7807 34.5173C30.5641 34.279 31.3266 33.5458 31.3512 32.9394C31.3758 32.333 30.6985 32.3206 30.6985 32.3206V32.3206ZM28.4859 33.1386C28.6907 32.8334 28.9797 32.7024 29.3342 32.678C28.879 32.9648 28.5588 33.3576 28.3833 33.6114C28.3226 33.5102 28.3304 33.371 28.4859 33.1386ZM30.7853 33.2196C30.3637 34.0245 29.4671 34.0335 28.9646 33.9301C29.2998 33.4485 30.0204 32.8619 30.4729 32.8009C30.9901 32.7314 30.7853 33.2196 30.7853 33.2196ZM29.4218 37.2604C29.4218 37.2604 29.4688 38.4195 29.3032 38.5419C29.1377 38.6643 28.7722 38.5973 28.6776 38.46C28.5822 38.3232 28.5547 37.828 28.5986 37.046C28.6425 36.2636 28.6851 35.2834 28.8658 35.1334C29.0467 34.9835 29.1487 35.1273 29.223 35.2353C29.2979 35.3434 29.3788 35.4658 29.3925 35.7135C29.4069 35.9612 29.4215 37.1475 29.4215 37.1475L29.4218 37.2604ZM32.6296 35.8288C31.9515 35.8513 30.6714 35.9203 30.498 36.0492C30.498 36.0492 30.4037 36.1451 30.5365 36.1773C30.6699 36.2092 31.2115 36.2887 31.4719 36.3101C31.7323 36.3321 32.685 36.3596 33.011 36.7859C33.011 36.7859 33.2024 36.9958 33.1824 37.4544C33.1619 37.9126 33.0795 38.0796 32.8915 38.2364C32.7035 38.3937 31.0598 39.0728 30.0413 37.9277C30.0413 37.9277 29.5771 37.3776 30.2308 36.9873C30.2308 36.9873 30.7119 36.7115 31.8871 37.0777C31.8871 37.0777 32.2429 37.2221 32.2253 37.3559C32.2073 37.4893 31.9205 37.6293 31.5258 37.6112C31.131 37.5927 30.8409 37.3793 30.8409 37.3793C30.8409 37.3793 30.479 37.1921 30.3403 37.3508C30.2013 37.5088 30.2413 37.5946 30.3656 37.6975C30.4895 37.8 30.9696 37.8065 30.9696 37.8065C30.9696 37.8065 32.3116 37.7822 32.555 37.4288C32.555 37.4288 32.7298 37.2365 32.4801 37.088C32.2302 36.94 31.5063 36.8271 31.232 36.8046C30.9567 36.7827 29.9584 36.7681 29.818 36.5023C29.818 36.5023 29.6856 36.3223 29.8485 35.8047C30.0123 35.287 31.2034 35.1027 31.7196 35.0751C31.7196 35.0751 33.1107 35.0666 33.3565 35.356C33.3565 35.356 33.3904 35.4065 33.345 35.5109C33.2996 35.6157 33.2565 35.7591 33.0122 35.7908L32.6296 35.8288V35.8288ZM35.1118 36.6671C35.1118 36.6671 35.5141 37.3815 35.5495 37.3896C35.5495 37.3896 35.5839 37.422 35.6234 37.402C35.6629 37.382 35.6482 37.1592 35.6482 37.1592C35.6482 37.1592 35.5853 36.3948 35.2359 35.0786C35.2359 35.0786 35.184 34.9218 35.2308 34.7682C35.2776 34.6145 35.4237 34.6892 35.4237 34.6892C35.4237 34.6892 36.0076 35.0025 36.2685 35.9773C36.5299 36.9522 36.3139 37.8212 36.1937 38.0789C36.0732 38.3366 35.7684 38.6105 35.4142 38.4232C35.0594 38.2364 34.5147 37.056 34.5147 37.056C34.5147 37.056 34.3089 36.6123 34.266 36.6179C34.266 36.6179 34.2265 36.5354 34.1845 37.0075C34.1426 37.4796 34.1436 38.4081 33.9558 38.5505C33.7681 38.6934 33.551 38.6304 33.4501 38.4581C33.3491 38.2857 33.3116 37.8824 33.3957 37.1789C33.4796 36.475 33.6566 35.732 33.8748 35.5055C34.0933 35.2787 34.2577 35.4494 34.3264 35.5116C34.3264 35.5116 34.5873 35.773 35.0384 36.5345L35.1118 36.6671V36.6671ZM37.9819 36.1609L37.8386 36.602C37.8386 36.602 38.3828 36.5681 38.7844 36.6149C38.7844 36.6149 38.9183 36.612 38.9212 36.7673C38.9236 36.9231 38.9046 37.085 38.9046 37.085C38.9046 37.085 38.8951 37.1799 38.7498 37.2035C38.604 37.2279 37.566 37.2365 37.566 37.2365L37.3807 37.7961C37.3807 37.7961 37.3168 37.9246 37.4516 37.8931C37.5869 37.8616 38.6859 37.6873 38.8156 37.7246C38.9661 37.768 39.1255 37.984 39.0785 38.1489C39.0109 38.3852 37.9312 39.0013 37.2546 38.9747C37.2546 38.9747 36.8759 39.0028 36.6289 38.5151C36.3817 38.0279 36.5785 37.7056 36.6404 37.5237C36.7018 37.3423 36.7618 37.2238 36.7618 37.2238C36.7618 37.2238 36.6043 36.8205 36.7352 36.6932C36.7352 36.6932 36.8111 36.6283 37.0266 36.6174L37.3039 36.0778C37.3039 36.0778 36.9935 36.0692 36.8262 35.8595C36.6594 35.6496 36.6484 35.5433 36.7877 35.4909C36.9269 35.4384 38.1753 35.2314 39.0597 35.289C39.0597 35.289 39.3606 35.2624 39.6098 35.7918C39.6098 35.7918 39.7202 36.0032 39.5108 36.0536C39.3008 36.1041 38.5645 36.178 38.0497 36.1595L37.9819 36.1609V36.1609ZM42.5238 35.7142C42.1785 35.457 41.8747 35.6952 41.8747 35.6952C41.2676 36.0085 40.5041 36.9444 40.0889 37.4959C40.0284 37.0982 40.3093 36.603 40.3093 36.603L40.3764 36.4886C40.7102 35.9261 40.7616 35.8676 40.8292 35.7215C40.8967 35.5755 40.9345 35.2514 40.8648 35.2214C40.7953 35.191 40.679 35.2939 40.679 35.2939C39.6802 36.1329 39.5183 37.0955 39.5183 37.0955C39.4149 37.5951 39.4983 37.9541 39.6368 38.2072C39.0682 39.3863 38.8549 40.5226 38.8549 40.9632C38.8554 41.4394 39.2201 41.75 39.4159 41.8332C39.6107 41.9171 39.6463 41.6742 39.6463 41.6742C39.8443 40.466 40.145 39.6582 40.4968 38.8526C41.4926 39.1235 42.3204 38.0762 42.5794 37.6793C42.8713 37.2311 42.8713 36.6215 42.8713 36.6215C42.8735 36.5647 42.8695 35.9712 42.5238 35.7142V35.7142ZM41.8111 37.649C41.6911 37.7539 41.3073 37.9589 40.9082 37.9894C41.31 37.2674 41.7906 36.7364 42.0578 36.456C42.3782 36.1192 42.4111 36.4379 42.4111 36.4379C42.4643 37.0394 42.0066 37.4781 41.8111 37.649ZM5.04957 44.4597C5.04957 44.7145 5.15125 44.7779 5.38898 44.7779H5.48651V44.8589H4.2854V44.7779H4.35757C4.60799 44.7779 4.69723 44.7104 4.69723 44.4261V42.6393C4.69723 42.3759 4.62506 42.2996 4.37903 42.2996H4.28564V42.2192C4.38757 42.2192 4.64627 42.2021 4.82037 42.1936C4.99422 42.1855 5.07932 42.1806 5.35509 42.1806C6.14023 42.1806 6.49232 42.5035 6.49232 42.9365C6.49232 43.2547 6.27604 43.5222 5.92809 43.6236C6.08536 43.747 6.2124 43.8655 6.41186 44.0652L6.74712 44.4005C6.99754 44.6509 7.25624 44.8082 7.58322 44.8291V44.9057C6.84051 44.9396 6.64959 44.7782 6.2719 44.4005L5.99173 44.1206C5.80496 43.9338 5.65647 43.8109 5.55479 43.7429C5.44848 43.7473 5.38069 43.7514 5.26609 43.7514C5.1727 43.7514 5.1176 43.747 5.04957 43.7429V44.4597V44.4597ZM5.04957 43.6619C5.15125 43.6743 5.21513 43.67 5.31266 43.67C5.78375 43.67 6.09341 43.471 6.09341 42.9614C6.09341 42.5666 5.91517 42.2613 5.2617 42.2613C5.18099 42.2613 5.12589 42.2613 5.04957 42.2699V43.6619V43.6619ZM12.3367 43.904H12.256C12.2221 43.6027 12.1414 43.5688 11.9673 43.5688H11.2502V44.4727C11.2502 44.668 11.3224 44.706 11.4794 44.706H12.1329C12.4301 44.706 12.5191 44.5912 12.6252 44.2264H12.7015L12.6335 44.8589H10.38V44.7779H10.4987C10.8384 44.7779 10.8979 44.6845 10.8979 44.4297V42.639C10.8979 42.4013 10.8425 42.2994 10.5582 42.2994H10.4651V42.2189H12.502L12.5359 42.809H12.4599C12.4045 42.4481 12.2987 42.3718 12.1458 42.3718H11.2502V43.4156H12.01C12.1626 43.4156 12.2348 43.3432 12.256 43.097H12.3367V43.904V43.904ZM18.3854 42.9148C18.2455 42.52 17.8805 42.2613 17.4177 42.2613C16.7089 42.2613 16.2675 42.7746 16.2675 43.4876C16.2675 44.2556 16.8193 44.8201 17.4643 44.8201C17.7995 44.8201 18.2111 44.7058 18.5 44.1925H18.5808C18.5254 44.3834 18.4108 44.6463 18.3091 44.8121C18.0375 44.774 17.8507 44.9264 17.3499 44.9264C16.4884 44.9264 15.8686 44.3578 15.8686 43.5724C15.8686 42.7495 16.5053 42.1553 17.3923 42.1553C17.927 42.1553 18.1562 42.3247 18.2879 42.3247C18.3345 42.3247 18.3557 42.3123 18.3642 42.2994H18.4279L18.4659 42.9146H18.3854V42.9148V42.9148ZM23.2577 44.9264C22.4257 44.9264 21.7255 44.3917 21.7255 43.5983C21.7255 42.7539 22.3748 42.1553 23.2787 42.1553C24.0809 42.1553 24.7685 42.7029 24.7685 43.4668C24.7685 44.3239 24.0809 44.9264 23.2577 44.9264V44.9264ZM23.1684 42.2613C22.4216 42.2613 22.1246 42.9572 22.1246 43.4666C22.1246 44.26 22.6635 44.8201 23.3467 44.8201C24.0384 44.8201 24.3696 44.2091 24.3696 43.6066C24.3693 42.8173 23.869 42.2613 23.1684 42.2613V42.2613ZM28.5978 44.4597C28.5978 44.7145 28.6998 44.7779 28.9375 44.7779H29.0345V44.8589H27.8339V44.7779H27.9058C28.1563 44.7779 28.2455 44.7104 28.2455 44.4261V42.6393C28.2455 42.3759 28.1736 42.2996 27.9273 42.2996H27.8339V42.2192C27.9354 42.2192 28.1945 42.2021 28.3682 42.1936C28.5425 42.1855 28.6271 42.1806 28.9029 42.1806C29.6883 42.1806 30.0401 42.5035 30.0401 42.9365C30.0401 43.2547 29.8238 43.5222 29.4759 43.6236C29.6332 43.747 29.7602 43.8655 29.9596 44.0652L30.2949 44.4005C30.5453 44.6509 30.8045 44.8082 31.1313 44.8291V44.9057C30.3883 44.9396 30.1974 44.7782 29.8197 44.4005L29.5398 44.1206C29.353 43.9338 29.2045 43.8109 29.1026 43.7429C28.9963 43.7473 28.9287 43.7514 28.8139 43.7514C28.7205 43.7514 28.6654 43.747 28.5976 43.7429V44.4597H28.5978ZM28.5978 43.6619C28.6998 43.6743 28.7632 43.67 28.8607 43.67C29.3318 43.67 29.6417 43.471 29.6417 42.9614C29.6417 42.5666 29.4632 42.2613 28.8097 42.2613C28.7293 42.2613 28.6739 42.2613 28.5978 42.2699V43.6619V43.6619ZM34.3864 42.6434C34.3864 42.3677 34.3145 42.2996 34.0641 42.2996H33.9792V42.2192C34.136 42.2106 34.344 42.2021 34.5773 42.1936C34.8107 42.1855 35.0699 42.1806 35.2903 42.1806C36.4109 42.1806 36.9076 42.7497 36.9076 43.4498C36.9076 44.0908 36.4109 44.8589 35.3376 44.8589H33.9795V44.7779H34.0514C34.2808 44.7779 34.3867 44.7145 34.3867 44.4683V42.6434H34.3864ZM34.739 44.5446C34.739 44.7184 34.7519 44.7779 35.0872 44.7779C35.6558 44.7779 35.8935 44.6975 36.1569 44.4341C36.3137 44.2817 36.5087 43.9545 36.5087 43.5178C36.5087 43.2035 36.4197 42.8553 36.1691 42.6054C35.9738 42.4101 35.6729 42.2616 35.0784 42.2616C34.9046 42.2616 34.7897 42.2745 34.7387 42.2782V44.5446H34.739ZM40.1669 44.2135C40.2564 44.5912 40.5532 44.8121 40.884 44.8121C41.1683 44.8121 41.4697 44.6463 41.4697 44.311C41.4697 43.6999 40.1072 43.5134 40.1072 42.7705C40.1072 42.4186 40.43 42.1553 40.8631 42.1553C41.2193 42.1553 41.2917 42.2616 41.4402 42.2616C41.4741 42.2616 41.4912 42.2531 41.5163 42.2192H41.5843L41.6562 42.7583H41.5843C41.4653 42.4525 41.1937 42.2572 40.9009 42.2572C40.6209 42.2572 40.4256 42.4186 40.4256 42.6564C40.4256 43.2589 41.7877 43.4198 41.7877 44.2008C41.7877 44.617 41.4185 44.9267 40.9218 44.9267C40.6885 44.9267 40.3917 44.8123 40.3322 44.8123C40.3153 44.8124 40.2987 44.8167 40.2839 44.8249C40.2691 44.833 40.2565 44.8447 40.2474 44.8589H40.175L40.086 44.2137H40.1669V44.2135V44.2135Z" fill="white"/>
<path fill-rule="evenodd" clip-rule="evenodd" d="M4.12817 40.9346V41.1346H42.3415V40.9346H4.12817ZM36.1391 15.2726C36.1391 7.98299 30.2296 2.07349 22.9398 2.07349C15.6502 2.07349 9.74093 7.98275 9.74093 15.2726C9.74093 20.2363 12.484 24.5555 16.5341 26.809C16.1905 26.3003 16.1049 25.8151 16.063 25.5094C15.9528 24.7093 16.4468 23.942 17.5835 23.942C19.1472 23.942 20.1733 24.5067 20.8199 24.8983C20.8199 24.8983 20.5695 24.547 20.284 24.3258C20.284 24.3258 17.4467 22.3576 17.4467 19.5165C17.4467 19.5165 17.3751 19.5711 17.2195 19.7059C17.0135 19.8842 17.0191 19.813 17.0052 19.6138C17.0052 19.6138 17.0003 17.9533 18.4326 16.0497C18.4326 16.0497 17.2702 16.095 16.685 14.8978C16.685 14.8978 16.3888 15.474 16.3427 15.5957C16.2966 15.7173 16.2281 15.6493 16.2078 15.6232C16.1878 15.5974 15.6387 15.1855 15.2935 14.5311C15.2935 14.5311 15.1776 14.4392 15.301 13.9934C15.4244 13.5475 15.4259 13.2875 15.8548 12.6565C15.8548 12.6565 15.2547 12.598 15.362 12.0121C15.3712 11.9613 15.4061 11.9145 15.4317 11.8663C15.2666 11.8227 15.1079 11.7577 14.9597 11.6729C14.9597 11.6729 13.9068 11.0438 14.1406 9.96997C14.3052 9.21556 14.818 9.1229 14.818 9.1229C14.818 9.1229 14.6639 8.03883 15.6885 7.81572C15.6885 7.81572 15.637 6.73311 16.5346 6.79163C16.9852 6.82113 17.347 7.09373 17.5687 7.56969L22.1171 3.95245C22.1171 3.95245 22.5635 3.91027 22.5336 4.37696L18.5964 7.99518C18.5964 7.99518 18.7698 7.86449 19.1465 7.94641C19.679 8.06248 19.7802 8.62232 19.6861 8.88224C19.5927 9.1407 19.4681 9.2436 19.0841 9.29944C18.7 9.35527 18.5028 9.7493 18.3735 10.2138C18.1958 10.8534 17.8827 11.1874 17.6162 11.3627C17.7213 11.6651 17.4209 11.896 17.4209 11.896C18.1517 13.6111 20.7177 14.7508 20.7177 14.7508C19.1192 12.9967 20.0082 11.9143 20.0082 11.9143C19.9407 11.8553 19.7556 11.6861 19.7224 11.215C19.689 10.7436 19.9945 10.2945 20.529 10.2567C21.0637 10.2192 21.2456 10.6069 21.2708 10.9604C21.2954 11.3137 21.1386 11.5434 21.1386 11.5434C21.6731 11.6331 21.7994 12.2617 21.7994 12.2617C22.4999 9.53546 25.6444 10.0975 25.8677 10.3001C25.8677 10.3001 25.5195 10.0061 25.4695 9.29944C25.3786 8.00396 26.3295 7.41779 27.2178 7.35512C28.1061 7.2927 29.4567 8.11734 29.5471 9.40404C29.65 10.8629 28.5603 11.2945 28.0797 11.3284C27.5996 11.3623 27.3487 11.2886 27.3487 11.2886C27.9812 11.9908 28.0273 12.9072 28.0273 12.9072C28.1412 12.717 28.4779 12.1925 29.4289 12.1257C30.2808 12.0657 31.1671 12.4951 31.2696 13.9539C31.3261 14.7603 30.7529 16.2418 29.1765 16.3528C27.8808 16.4439 27.5462 15.2536 27.5462 15.2536C26.429 17.1289 23.9531 16.7624 23.9531 16.7624C23.9531 16.7624 24.0599 17.6034 26.4434 18.5516C26.4434 18.5516 27.7584 18.695 27.9413 17.6782C28.1241 16.6617 28.8051 16.8965 28.8051 16.8965C28.8051 16.8965 29.4952 17.0601 29.5466 17.7916C29.5466 17.7916 29.5696 18.3132 29.1724 18.4965C29.1724 18.4965 30.9131 19.3824 31.2954 20.3492C31.5631 21.0255 31.3512 21.2538 31.3512 21.2538C31.3512 21.2538 31.7204 21.9706 31.537 22.44C31.3846 22.8304 30.9809 22.826 30.8065 22.7426C30.8065 22.7426 30.4617 23.5821 29.481 22.8009C28.5001 22.0196 28.4991 22.231 28.1814 22.1267C27.8642 22.0223 27.0213 22.1398 26.5699 21.0073L25.728 21.3172C25.728 21.3172 24.4393 21.0519 23.6432 20.5969L24.1826 20.0334C24.1826 20.0334 23.3021 20.2938 22.2785 18.2917C21.1486 21.6234 25.2598 22.6165 25.2598 22.6165C24.0041 23.3817 22.7571 22.7653 22.7571 22.7653C22.9349 23.3536 23.9463 24.7657 23.9463 24.7657C24.1621 24.7232 25.4154 23.7608 26.8842 23.7608C27.4019 23.7608 28.6164 24.1061 28.684 25.4482C28.7264 26.2882 28.2724 27.1379 26.962 27.8421C32.2834 26.1414 36.1391 21.1589 36.1391 15.2726V15.2726Z" fill="white"/>
</g>
<defs>
<clipPath id="clip0_2205_224">
<rect width="47" height="47" fill="white"/>
</clipPath>
</defs>
</svg>
